<svg version="1.1" id="Layer_1" xmlns="http://www.w3.org/2000/svg" xmlns:xlink="http://www.w3.org/1999/xlink" x="0px" y="0px"
	 width="100%" viewBox="0 0 1200 630" enable-background="new 0 0 1200 630" xml:space="preserve">
<path fill="#FFFFFF" opacity="1.000000" stroke="none" 
	d="
M685.000000,631.000000 
	C456.666687,631.000000 228.833359,631.000000 1.000031,631.000000 
	C1.000020,421.000031 1.000020,211.000046 1.000010,1.000059 
	C400.999969,1.000039 800.999939,1.000039 1201.000000,1.000020 
	C1201.000000,210.999939 1201.000000,420.999878 1201.000000,630.999878 
	C1029.166626,631.000000 857.333313,631.000000 685.000000,631.000000 
M458.501862,310.932831 
	C475.490723,310.932465 492.480865,311.061798 509.468140,310.896759 
	C528.037415,310.716339 542.963684,296.311737 543.118896,278.306213 
	C543.305542,256.655182 543.319824,234.999832 543.112732,213.349197 
	C542.944519,195.764465 528.579651,181.145294 511.029877,180.910507 
	C489.214752,180.618668 467.390045,180.641602 445.574371,180.916290 
	C427.920868,181.138535 413.211426,196.011398 413.050201,213.623459 
	C412.853546,235.107712 412.858734,256.596405 413.050934,278.080750 
	C413.189850,293.608429 424.317963,307.079559 439.620636,309.959473 
	C445.436523,311.054047 451.533997,310.652527 458.501862,310.932831 
M655.166077,70.021507 
	C636.340515,70.014122 617.514832,69.961273 598.689453,70.012573 
	C581.040161,70.060669 568.045166,82.821136 567.883850,100.485764 
	C567.718018,118.643471 567.730103,136.804871 567.882141,154.962830 
	C568.036743,173.438232 580.662476,185.857239 599.154602,185.919724 
	C616.813782,185.979401 634.473450,185.962418 652.132812,185.924484 
	C670.861694,185.884262 683.819214,172.889069 683.844360,154.150497 
	C683.867676,136.824295 683.860962,119.498016 683.844849,102.171791 
	C683.828430,84.459961 673.749451,72.817139 655.166077,70.021507 
M677.457886,260.045441 
	C662.412476,251.721527 646.357178,248.236435 629.350708,251.142426 
	C612.577942,254.008499 598.403687,261.617920 589.762573,276.931244 
	C576.928589,299.675049 585.848694,327.277588 610.230713,340.726044 
	C621.140320,346.743439 632.542908,351.892242 643.278625,358.190582 
	C649.935181,362.095734 656.613525,366.637451 661.773682,372.274353 
	C671.469421,382.865997 666.731140,397.194336 652.932007,401.196869 
	C639.601868,405.063354 627.291016,402.115753 615.579285,395.384644 
	C611.690857,393.149811 607.878113,390.726959 603.810791,388.872589 
	C597.159302,385.839996 589.925476,387.567535 585.714905,392.762878 
	C581.738708,397.669037 581.914673,404.908875 586.329285,410.774780 
	C587.716919,412.618530 589.287964,414.446472 591.124512,415.811554 
	C615.077637,433.615479 641.313538,437.349548 668.864319,426.367310 
	C690.113708,417.896912 700.961304,397.018188 696.928284,375.048920 
	C693.780762,357.902954 683.869385,345.462036 668.721619,337.166077 
	C656.915833,330.700409 644.758606,324.845367 633.196533,317.979706 
	C627.751343,314.746246 622.447021,310.450378 618.654846,305.442535 
	C612.215027,296.938232 616.403137,285.663818 626.409058,281.834351 
	C639.129272,276.966064 650.830566,280.046021 662.343445,286.003906 
	C666.880676,288.351868 671.705688,290.321228 676.609314,291.736633 
	C682.199402,293.350189 688.142212,290.578003 691.338135,285.728180 
	C694.193787,281.394684 694.210144,276.142029 690.169861,271.410919 
	C686.657593,267.298035 682.164185,264.023071 677.457886,260.045441 
M542.994263,554.499390 
	C548.202393,559.756409 554.512146,562.089172 561.900269,562.034241 
	C576.228149,561.927612 590.557373,562.024597 604.885986,561.996460 
	C620.359619,561.966125 630.635010,551.835449 630.720154,536.423706 
	C630.799255,522.095520 630.785889,507.766327 630.726990,493.437927 
	C630.663513,477.979858 620.485229,467.804260 605.039551,467.745361 
	C590.711121,467.690765 576.382324,467.718048 562.053650,467.736115 
	C546.307983,467.755981 536.110168,477.902924 536.069763,493.626892 
	C536.033386,507.788849 536.125000,521.951294 536.036682,536.112793 
	C535.994324,542.911499 537.998779,548.870483 542.994263,554.499390 
M453.327820,437.285614 
	C457.223938,438.524170 461.087036,440.690887 465.022217,440.830719 
	C477.835480,441.285950 490.675659,441.073944 503.504425,440.977997 
	C514.672058,440.894440 523.632446,432.345795 523.862854,421.173523 
	C524.130798,408.182953 524.113647,395.179230 523.873718,382.187653 
	C523.660706,370.657684 514.940552,362.128326 503.399139,361.978943 
	C490.738495,361.815063 478.072845,361.830414 465.411682,361.973511 
	C453.436584,362.108856 444.996399,370.414886 444.788971,382.430847 
	C444.570435,395.089844 444.720093,407.755463 444.741058,420.418152 
	C444.752228,427.171112 447.393005,432.672180 453.327820,437.285614 
M728.734558,149.252365 
	C725.274109,153.205841 723.917480,157.792969 724.014893,163.047318 
	C724.187744,172.372330 724.007080,181.703293 724.078979,191.030945 
	C724.159241,201.446045 731.215393,208.732620 741.551392,208.893570 
	C751.543457,209.049194 761.541870,209.059311 771.533752,208.899643 
	C782.142029,208.730133 788.918152,201.772720 788.990601,191.185623 
	C789.056702,181.524704 789.035156,171.862854 788.996399,162.201645 
	C788.951965,151.100449 782.001160,144.068848 770.990723,144.008423 
	C761.662781,143.957230 752.332153,144.119171 743.006958,143.950226 
	C737.750793,143.854980 733.156555,145.167191 728.734558,149.252365 
z"/>
<path fill="#642679" opacity="1.000000" stroke="none" 
	d="
M458.002502,310.932861 
	C451.533997,310.652527 445.436523,311.054047 439.620636,309.959473 
	C424.317963,307.079559 413.189850,293.608429 413.050934,278.080750 
	C412.858734,256.596405 412.853546,235.107712 413.050201,213.623459 
	C413.211426,196.011398 427.920868,181.138535 445.574371,180.916290 
	C467.390045,180.641602 489.214752,180.618668 511.029877,180.910507 
	C528.579651,181.145294 542.944519,195.764465 543.112732,213.349197 
	C543.319824,234.999832 543.305542,256.655182 543.118896,278.306213 
	C542.963684,296.311737 528.037415,310.716339 509.468140,310.896759 
	C492.480865,311.061798 475.490723,310.932465 458.002502,310.932861 
z"/>
<path fill="#406EB2" opacity="1.000000" stroke="none" 
	d="
M655.623169,70.039131 
	C673.749451,72.817139 683.828430,84.459961 683.844849,102.171791 
	C683.860962,119.498016 683.867676,136.824295 683.844360,154.150497 
	C683.819214,172.889069 670.861694,185.884262 652.132812,185.924484 
	C634.473450,185.962418 616.813782,185.979401 599.154602,185.919724 
	C580.662476,185.857239 568.036743,173.438232 567.882141,154.962830 
	C567.730103,136.804871 567.718018,118.643471 567.883850,100.485764 
	C568.045166,82.821136 581.040161,70.060669 598.689453,70.012573 
	C617.514832,69.961273 636.340515,70.014122 655.623169,70.039131 
z"/>
<path fill="#28498F" opacity="1.000000" stroke="none" 
	d="
M677.781128,260.211609 
	C682.164185,264.023071 686.657593,267.298035 690.169861,271.410919 
	C694.210144,276.142029 694.193787,281.394684 691.338135,285.728180 
	C688.142212,290.578003 682.199402,293.350189 676.609314,291.736633 
	C671.705688,290.321228 666.880676,288.351868 662.343445,286.003906 
	C650.830566,280.046021 639.129272,276.966064 626.409058,281.834351 
	C616.403137,285.663818 612.215027,296.938232 618.654846,305.442535 
	C622.447021,310.450378 627.751343,314.746246 633.196533,317.979706 
	C644.758606,324.845367 656.915833,330.700409 668.721619,337.166077 
	C683.869385,345.462036 693.780762,357.902954 696.928284,375.048920 
	C700.961304,397.018188 690.113708,417.896912 668.864319,426.367310 
	C641.313538,437.349548 615.077637,433.615479 591.124512,415.811554 
	C589.287964,414.446472 587.716919,412.618530 586.329285,410.774780 
	C581.914673,404.908875 581.738708,397.669037 585.714905,392.762878 
	C589.925476,387.567535 597.159302,385.839996 603.810791,388.872589 
	C607.878113,390.726959 611.690857,393.149811 615.579285,395.384644 
	C627.291016,402.115753 639.601868,405.063354 652.932007,401.196869 
	C666.731140,397.194336 671.469421,382.865997 661.773682,372.274353 
	C656.613525,366.637451 649.935181,362.095734 643.278625,358.190582 
	C632.542908,351.892242 621.140320,346.743439 610.230713,340.726044 
	C585.848694,327.277588 576.928589,299.675049 589.762573,276.931244 
	C598.403687,261.617920 612.577942,254.008499 629.350708,251.142426 
	C646.357178,248.236435 662.412476,251.721527 677.781128,260.211609 
z"/>
<path fill="#BA317F" opacity="1.000000" stroke="none" 
	d="
M542.739807,554.242065 
	C537.998779,548.870483 535.994324,542.911499 536.036682,536.112793 
	C536.125000,521.951294 536.033386,507.788849 536.069763,493.626892 
	C536.110168,477.902924 546.307983,467.755981 562.053650,467.736115 
	C576.382324,467.718048 590.711121,467.690765 605.039551,467.745361 
	C620.485229,467.804260 630.663513,477.979858 630.726990,493.437927 
	C630.785889,507.766327 630.799255,522.095520 630.720154,536.423706 
	C630.635010,551.835449 620.359619,561.966125 604.885986,561.996460 
	C590.557373,562.024597 576.228149,561.927612 561.900269,562.034241 
	C554.512146,562.089172 548.202393,559.756409 542.739807,554.242065 
z"/>
<path fill="#992982" opacity="1.000000" stroke="none" 
	d="
M453.040771,437.057434 
	C447.393005,432.672180 444.752228,427.171112 444.741058,420.418152 
	C444.720093,407.755463 444.570435,395.089844 444.788971,382.430847 
	C444.996399,370.414886 453.436584,362.108856 465.411682,361.973511 
	C478.072845,361.830414 490.738495,361.815063 503.399139,361.978943 
	C514.940552,362.128326 523.660706,370.657684 523.873718,382.187653 
	C524.113647,395.179230 524.130798,408.182953 523.862854,421.173523 
	C523.632446,432.345795 514.672058,440.894440 503.504425,440.977997 
	C490.675659,441.073944 477.835480,441.285950 465.022217,440.830719 
	C461.087036,440.690887 457.223938,438.524170 453.040771,437.057434 
z"/>
<path fill="#BA317E" opacity="1.000000" stroke="none" 
	d="
M729.003174,149.003571 
	C733.156555,145.167191 737.750793,143.854980 743.006958,143.950226 
	C752.332153,144.119171 761.662781,143.957230 770.990723,144.008423 
	C782.001160,144.068848 788.951965,151.100449 788.996399,162.201645 
	C789.035156,171.862854 789.056702,181.524704 788.990601,191.185623 
	C788.918152,201.772720 782.142029,208.730133 771.533752,208.899643 
	C761.541870,209.059311 751.543457,209.049194 741.551392,208.893570 
	C731.215393,208.732620 724.159241,201.446045 724.078979,191.030945 
	C724.007080,181.703293 724.187744,172.372330 724.014893,163.047318 
	C723.917480,157.792969 725.274109,153.205841 729.003174,149.003571 
z"/>
</svg>